<?xml version="1.0" encoding="iso-8859-1"?>
<!-- Generator: Adobe Illustrator 16.0.0, SVG Export Plug-In . SVG Version: 6.00 Build 0)  -->
<!DOCTYPE svg PUBLIC "-//W3C//DTD SVG 1.1//EN" "http://www.w3.org/Graphics/SVG/1.1/DTD/svg11.dtd">
<svg version="1.1" id="Capa_1" xmlns="http://www.w3.org/2000/svg" xmlns:xlink="http://www.w3.org/1999/xlink" x="0px" y="0px"
	 width="971.972px" height="971.973px" viewBox="0 0 971.972 971.973" style="enable-background:new 0 0 971.972 971.973;"
	 xml:space="preserve">
<g>
	<g>
		<path d="M846.217,67.944c-18.467-18.467-39.977-32.968-63.933-43.1c-24.814-10.496-51.16-15.817-78.307-15.817h-64.951
			c3.244,6.986,5.661,13.962,7.726,20.242c0.19,0.583,0.38,1.169,0.567,1.758h56.659c98.945,0,179.157,80.211,179.157,179.156
			v295.245c0,5.523-4.478,10.01-10,10.021l-110.013,0.25V287.62h-21.5l-0.852,652.353c-0.01,5.521-4.496,10-10.019,10H241.221
			c-5.523,0-9.992-4.479-9.982-10l1.464-652.353h-21v227.911l-112.864-0.094c-5.522-0.006-10-4.486-10-10.008V210.183
			c0-98.946,80.211-179.156,179.157-179.156h57.458c2.811-8.902,5.685-16.04,8.521-22h-65.978c-27.146,0-53.492,5.321-78.306,15.817
			c-23.956,10.132-45.466,24.634-63.933,43.1c-18.467,18.467-32.968,39.978-43.101,63.934
			c-10.495,24.814-15.817,51.16-15.817,78.306V505.43c0,17.635,14.347,31.992,31.981,32.008l111.156,0.092l-0.738,402.402
			c-0.015,8.557,3.304,16.602,9.346,22.654s14.081,9.387,22.636,9.387h489.531c17.623,0,31.985-14.338,32.019-31.959l0.742-402.314
			l109.671-0.248c17.617-0.041,31.95-14.404,31.95-32.021V210.183c0-27.146-5.322-53.492-15.817-78.306
			C879.184,107.921,864.683,86.411,846.217,67.944z"/>
		<path d="M834.28,340.804c8.283,0,15-6.716,15-15V205.872c0-77.889-64.604-141.257-144.013-141.257h-49.646
			c0.067,0.345,0.135,0.682,0.203,1.03c0.967,4.979,4.478,24.265,5.388,28.97h44.056c62.866,0,114.013,49.91,114.013,111.257
			v119.932C819.28,334.088,825.996,340.804,834.28,340.804z"/>
		<path d="M317.107,64.615h-50.402c-79.408,0-144.012,63.368-144.012,141.257v119.932c0,8.284,6.716,15,15,15
			c8.284,0,15-6.716,15-15V205.872c0-61.347,51.146-111.257,114.012-111.257h45.12c0.721-3.965,4.04-23.632,5.171-29.439
			C317.033,64.986,317.07,64.804,317.107,64.615z"/>
		<path d="M628.245,380.699c27.877,0,50.476-26.539,50.476-54.416v-28.662c0-5.523-4.477-10-10-10h-80.951c-5.522,0-10,4.477-10,10
			v28.662C577.768,354.159,600.368,380.699,628.245,380.699z"/>
		<path d="M699.623,261.913H556.866c-4.144,0-7.5,3.358-7.5,7.5v54.673c0,45.279,36.857,84.999,78.878,84.999
			c42.02,0,78.879-39.719,78.879-84.999v-54.673C707.123,265.271,703.765,261.913,699.623,261.913z M692.123,324.087
			c0,17.34-6.924,35.03-18.997,48.533c-12.376,13.842-28.315,21.465-44.882,21.465c-16.565,0-32.505-7.623-44.882-21.465
			c-12.072-13.503-18.996-31.193-18.996-48.533v-47.173h127.757V324.087z"/>
		<path d="M319.321,141.23c0.82,0,1.755-0.159,2.793-0.495l31.493-10.178c1.491-0.482,3.17-0.708,4.918-0.708
			c4.771,0,10.057,1.683,13.452,4.458c29.023,23.718,62.487,43.782,85.62,56.521c0.992-7.347,4.414-14.026,10.227-19.899
			c1.525-1.542,3.132-2.933,4.769-4.229c-28.666-17.876-55.802-38.579-79.084-63.122c-7.425-7.827-16.323-16.761-23.12-26.398
			c-2.199-3.119-4.173-6.31-5.809-9.563c-0.836-1.663-1.599-3.339-2.238-5.032c-3.903-10.308-4.117-20.935-2.976-31.559
			c0.792-7.371,2.233-14.74,3.554-22c0.13-0.715,0.259-1.43,0.386-2.143C363.91,3.49,360.705,0,357.64,0
			c-1.283,0-2.542,0.611-3.486,2.098c-1.44,2.269-2.785,4.583-4.062,6.927c-3.84,7.055-6.967,14.431-9.586,22
			c-3.781,10.923-6.513,22.245-8.803,33.588c-0.223,1.1-0.444,2.2-0.658,3.3c-1.72,8.821-3.104,17.78-4.684,26.7
			c-2.344,13.238-5.124,26.389-10.107,38.866C314.365,138.201,315.749,141.23,319.321,141.23z"/>
		<path d="M648.257,102.862c-0.562-2.745-1.094-5.495-1.615-8.247c-1.657-8.741-3.171-17.508-4.867-26.241
			c-0.243-1.254-0.493-2.506-0.747-3.759c-2.103-10.418-4.555-20.778-7.874-30.879c-0.297-0.903-0.6-1.806-0.902-2.709
			c-2.54-7.547-5.388-15.045-9.276-22c-0.312-0.558-0.612-1.121-0.938-1.671c-1.448-2.446-3.084-6.083-6.101-6.911
			c-0.487-0.134-0.987-0.198-1.483-0.198c-2.958,0-5.788,2.276-5.212,5.579c0.186,1.064,0.376,2.131,0.568,3.202
			c1.304,7.235,2.709,14.611,3.472,22c0.942,9.132,0.899,18.284-1.587,27.214c-3.159,11.351-11.036,20.204-18.502,29.026
			c-18.65,22.041-40.251,41.538-63.413,58.729c-11.075,8.221-22.732,15.606-34.459,22.855c-1.006,0.622-2.013,1.245-3.02,1.865
			c-1.002,0.617-2.028,1.244-3.062,1.885c-2.002,1.243-4.03,2.542-5.967,3.947c-6.348,4.605-11.677,10.33-11.677,18.836v2.953v8.059
			v7.954v117.365c0,6.332,4.698,11.466,10.493,11.466h8.652c5.795,0,10.491-5.133,10.491-11.466c0-14.02,0-28.04,0-42.06
			c0-15.137-0.052-60.752-0.111-68.431c-0.048-6.099-0.542-13.272,1.96-19.239c3.03-7.228,9.955-10.376,16.415-14.001
			c22.504-12.629,44.489-26.503,65.245-41.81c5.173-3.841,10.267-7.79,15.256-11.867c3.396-2.775,8.682-4.458,13.45-4.459
			c1.749,0,3.428,0.226,4.919,0.708l31.494,10.179c1.035,0.334,1.969,0.494,2.786,0.494c2.834,0,4.286-1.913,3.823-5.061
			c-0.812-5.525-2.894-10.837-4.303-16.247C650.696,114.275,649.424,108.578,648.257,102.862z"/>
	</g>
</g>
<g>
</g>
<g>
</g>
<g>
</g>
<g>
</g>
<g>
</g>
<g>
</g>
<g>
</g>
<g>
</g>
<g>
</g>
<g>
</g>
<g>
</g>
<g>
</g>
<g>
</g>
<g>
</g>
<g>
</g>
</svg>
